<svg width="2035" height="1141" xmlns="http://www.w3.org/2000/svg" xmlns:xlink="http://www.w3.org/1999/xlink" xml:space="preserve" overflow="hidden"><g transform="translate(-1269 -385)"><g><rect x="1272" y="388" width="2031" height="1136" fill="#D8DEE9" fill-opacity="0"/><path d="M1669.5 852C1669.5 793.734 1716.73 746.5 1775 746.5 1833.27 746.5 1880.5 793.734 1880.5 852 1880.5 910.266 1833.27 957.5 1775 957.5 1716.73 957.5 1669.5 910.266 1669.5 852Z" stroke="#2E3440" stroke-width="6.875" stroke-linecap="butt" stroke-linejoin="miter" stroke-miterlimit="8" stroke-opacity="1" fill="#BF616A" fill-rule="evenodd" fill-opacity="1"/><path d="M1754.5 729.5C1754.5 702.438 1776.21 680.5 1803 680.5 1829.79 680.5 1851.5 702.438 1851.5 729.5 1851.5 756.562 1829.79 778.5 1803 778.5 1776.21 778.5 1754.5 756.562 1754.5 729.5Z" stroke="#2E3440" stroke-width="6.875" stroke-linecap="butt" stroke-linejoin="miter" stroke-miterlimit="8" stroke-opacity="1" fill="#D8DEE9" fill-rule="evenodd" fill-opacity="1"/><path d="M1791.5 1085C1791.5 1026.73 1838.96 979.5 1897.5 979.5 1956.04 979.5 2003.5 1026.73 2003.5 1085 2003.5 1143.27 1956.04 1190.5 1897.5 1190.5 1838.96 1190.5 1791.5 1143.27 1791.5 1085Z" stroke="#2E3440" stroke-width="6.875" stroke-linecap="butt" stroke-linejoin="miter" stroke-miterlimit="8" stroke-opacity="1" fill="#5E697D" fill-rule="evenodd" fill-opacity="1"/><path d="M1848.5 1186.5C1848.5 1159.44 1870.21 1137.5 1897 1137.5 1923.79 1137.5 1945.5 1159.44 1945.5 1186.5 1945.5 1213.56 1923.79 1235.5 1897 1235.5 1870.21 1235.5 1848.5 1213.56 1848.5 1186.5Z" stroke="#2E3440" stroke-width="6.875" stroke-linecap="butt" stroke-linejoin="miter" stroke-miterlimit="8" stroke-opacity="1" fill="#D8DEE9" fill-rule="evenodd" fill-opacity="1"/><path d="M2130.5 1148.5C2130.5 1089.96 2177.73 1042.5 2236 1042.5 2294.27 1042.5 2341.5 1089.96 2341.5 1148.5 2341.5 1207.04 2294.27 1254.5 2236 1254.5 2177.73 1254.5 2130.5 1207.04 2130.5 1148.5Z" stroke="#2E3440" stroke-width="6.875" stroke-linecap="butt" stroke-linejoin="miter" stroke-miterlimit="8" stroke-opacity="1" fill="#5E697D" fill-rule="evenodd" fill-opacity="1"/><path d="M2275.5 1235C2275.5 1208.21 2297.44 1186.5 2324.5 1186.5 2351.56 1186.5 2373.5 1208.21 2373.5 1235 2373.5 1261.79 2351.56 1283.5 2324.5 1283.5 2297.44 1283.5 2275.5 1261.79 2275.5 1235Z" stroke="#2E3440" stroke-width="6.875" stroke-linecap="butt" stroke-linejoin="miter" stroke-miterlimit="8" stroke-opacity="1" fill="#D8DEE9" fill-rule="evenodd" fill-opacity="1"/><path d="M2146.5 1053C2146.5 1026.21 2168.44 1004.5 2195.5 1004.5 2222.56 1004.5 2244.5 1026.21 2244.5 1053 2244.5 1079.79 2222.56 1101.5 2195.5 1101.5 2168.44 1101.5 2146.5 1079.79 2146.5 1053Z" stroke="#2E3440" stroke-width="6.875" stroke-linecap="butt" stroke-linejoin="miter" stroke-miterlimit="8" stroke-opacity="1" fill="#D8DEE9" fill-rule="evenodd" fill-opacity="1"/><path d="M2295.5 865C2295.5 806.734 2342.73 759.5 2401 759.5 2459.27 759.5 2506.5 806.734 2506.5 865 2506.5 923.266 2459.27 970.5 2401 970.5 2342.73 970.5 2295.5 923.266 2295.5 865Z" stroke="#2E3440" stroke-width="6.875" stroke-linecap="butt" stroke-linejoin="miter" stroke-miterlimit="8" stroke-opacity="1" fill="#5E697D" fill-rule="evenodd" fill-opacity="1"/><path d="M2373.5 979C2373.5 952.214 2395.21 930.5 2422 930.5 2448.79 930.5 2470.5 952.214 2470.5 979 2470.5 1005.79 2448.79 1027.5 2422 1027.5 2395.21 1027.5 2373.5 1005.79 2373.5 979Z" stroke="#2E3440" stroke-width="6.875" stroke-linecap="butt" stroke-linejoin="miter" stroke-miterlimit="8" stroke-opacity="1" fill="#D8DEE9" fill-rule="evenodd" fill-opacity="1"/><path d="M2316.5 617.5C2316.5 558.958 2363.73 511.5 2422 511.5 2480.27 511.5 2527.5 558.958 2527.5 617.5 2527.5 676.042 2480.27 723.5 2422 723.5 2363.73 723.5 2316.5 676.042 2316.5 617.5Z" stroke="#2E3440" stroke-width="6.875" stroke-linecap="butt" stroke-linejoin="miter" stroke-miterlimit="8" stroke-opacity="1" fill="#BF616A" fill-rule="evenodd" fill-opacity="1"/><path d="M2295.5 524C2295.5 497.214 2317.21 475.5 2344 475.5 2370.79 475.5 2392.5 497.214 2392.5 524 2392.5 550.786 2370.79 572.5 2344 572.5 2317.21 572.5 2295.5 550.786 2295.5 524Z" stroke="#2E3440" stroke-width="6.875" stroke-linecap="butt" stroke-linejoin="miter" stroke-miterlimit="8" stroke-opacity="1" fill="#D8DEE9" fill-rule="evenodd" fill-opacity="1"/><path d="M2586.5 979C2586.5 920.734 2633.96 873.5 2692.5 873.5 2751.04 873.5 2798.5 920.734 2798.5 979 2798.5 1037.27 2751.04 1084.5 2692.5 1084.5 2633.96 1084.5 2586.5 1037.27 2586.5 979Z" stroke="#2E3440" stroke-width="6.875" stroke-linecap="butt" stroke-linejoin="miter" stroke-miterlimit="8" stroke-opacity="1" fill="#5E697D" fill-rule="evenodd" fill-opacity="1"/><path d="M2692.5 873.5C2692.5 846.438 2714.44 824.5 2741.5 824.5 2768.56 824.5 2790.5 846.438 2790.5 873.5 2790.5 900.562 2768.56 922.5 2741.5 922.5 2714.44 922.5 2692.5 900.562 2692.5 873.5Z" stroke="#2E3440" stroke-width="6.875" stroke-linecap="butt" stroke-linejoin="miter" stroke-miterlimit="8" stroke-opacity="1" fill="#D8DEE9" fill-rule="evenodd" fill-opacity="1"/><path d="M2586.5 1076.5C2586.5 1049.44 2608.44 1027.5 2635.5 1027.5 2662.56 1027.5 2684.5 1049.44 2684.5 1076.5 2684.5 1103.56 2662.56 1125.5 2635.5 1125.5 2608.44 1125.5 2586.5 1103.56 2586.5 1076.5Z" stroke="#2E3440" stroke-width="6.875" stroke-linecap="butt" stroke-linejoin="miter" stroke-miterlimit="8" stroke-opacity="1" fill="#D8DEE9" fill-rule="evenodd" fill-opacity="1"/><path d="M2878.5 1110.5C2878.5 1051.96 2925.96 1004.5 2984.5 1004.5 3043.04 1004.5 3090.5 1051.96 3090.5 1110.5 3090.5 1169.04 3043.04 1216.5 2984.5 1216.5 2925.96 1216.5 2878.5 1169.04 2878.5 1110.5Z" stroke="#2E3440" stroke-width="6.875" stroke-linecap="butt" stroke-linejoin="miter" stroke-miterlimit="8" stroke-opacity="1" fill="#BF616A" fill-rule="evenodd" fill-opacity="1"/><path d="M3003.5 1197C3003.5 1170.21 3025.21 1148.5 3052 1148.5 3078.79 1148.5 3100.5 1170.21 3100.5 1197 3100.5 1223.79 3078.79 1245.5 3052 1245.5 3025.21 1245.5 3003.5 1223.79 3003.5 1197Z" stroke="#2E3440" stroke-width="6.875" stroke-linecap="butt" stroke-linejoin="miter" stroke-miterlimit="8" stroke-opacity="1" fill="#D8DEE9" fill-rule="evenodd" fill-opacity="1"/><path d="M1491.5 1254C1491.5 1195.73 1538.73 1148.5 1597 1148.5 1655.27 1148.5 1702.5 1195.73 1702.5 1254 1702.5 1312.27 1655.27 1359.5 1597 1359.5 1538.73 1359.5 1491.5 1312.27 1491.5 1254Z" stroke="#2E3440" stroke-width="6.875" stroke-linecap="butt" stroke-linejoin="miter" stroke-miterlimit="8" stroke-opacity="1" fill="#5E697D" fill-rule="evenodd" fill-opacity="1"/><path d="M1448.5 1167.5C1448.5 1140.44 1470.44 1118.5 1497.5 1118.5 1524.56 1118.5 1546.5 1140.44 1546.5 1167.5 1546.5 1194.56 1524.56 1216.5 1497.5 1216.5 1470.44 1216.5 1448.5 1194.56 1448.5 1167.5Z" stroke="#2E3440" stroke-width="6.875" stroke-linecap="butt" stroke-linejoin="miter" stroke-miterlimit="8" stroke-opacity="1" fill="#D8DEE9" fill-rule="evenodd" fill-opacity="1"/><path d="M1647.5 1322C1647.5 1295.21 1669.44 1273.5 1696.5 1273.5 1723.56 1273.5 1745.5 1295.21 1745.5 1322 1745.5 1348.79 1723.56 1370.5 1696.5 1370.5 1669.44 1370.5 1647.5 1348.79 1647.5 1322Z" stroke="#2E3440" stroke-width="6.875" stroke-linecap="butt" stroke-linejoin="miter" stroke-miterlimit="8" stroke-opacity="1" fill="#D8DEE9" fill-rule="evenodd" fill-opacity="1"/><path d="M1448.5 1332.5C1448.5 1305.44 1470.44 1283.5 1497.5 1283.5 1524.56 1283.5 1546.5 1305.44 1546.5 1332.5 1546.5 1359.56 1524.56 1381.5 1497.5 1381.5 1470.44 1381.5 1448.5 1359.56 1448.5 1332.5Z" stroke="#2E3440" stroke-width="6.875" stroke-linecap="butt" stroke-linejoin="miter" stroke-miterlimit="8" stroke-opacity="1" fill="#D8DEE9" fill-rule="evenodd" fill-opacity="1"/><path d="M2878.5 865C2878.5 806.734 2925.96 759.5 2984.5 759.5 3043.04 759.5 3090.5 806.734 3090.5 865 3090.5 923.266 3043.04 970.5 2984.5 970.5 2925.96 970.5 2878.5 923.266 2878.5 865Z" stroke="#2E3440" stroke-width="6.875" stroke-linecap="butt" stroke-linejoin="miter" stroke-miterlimit="8" stroke-opacity="1" fill="#5E697D" fill-rule="evenodd" fill-opacity="1"/><path d="M2866.5 759C2866.5 732.214 2888.21 710.5 2915 710.5 2941.79 710.5 2963.5 732.214 2963.5 759 2963.5 785.786 2941.79 807.5 2915 807.5 2888.21 807.5 2866.5 785.786 2866.5 759Z" stroke="#2E3440" stroke-width="6.875" stroke-linecap="butt" stroke-linejoin="miter" stroke-miterlimit="8" stroke-opacity="1" fill="#D8DEE9" fill-rule="evenodd" fill-opacity="1"/><path d="M3052.5 865C3052.5 838.214 3074.21 816.5 3101 816.5 3127.79 816.5 3149.5 838.214 3149.5 865 3149.5 891.786 3127.79 913.5 3101 913.5 3074.21 913.5 3052.5 891.786 3052.5 865Z" stroke="#2E3440" stroke-width="6.875" stroke-linecap="butt" stroke-linejoin="miter" stroke-miterlimit="8" stroke-opacity="1" fill="#D8DEE9" fill-rule="evenodd" fill-opacity="1"/></g></g></svg>